<svg width="15" height="16" viewBox="0 0 15 16" fill="none" xmlns="http://www.w3.org/2000/svg">
<path d="M9.75562 10.7605L11.0156 9.4562C11.1853 9.28271 11.4 9.16395 11.6337 9.11434C11.8673 9.06472 12.1099 9.08639 12.3319 9.17671L13.8675 9.81139C14.0918 9.90565 14.2842 10.0665 14.4203 10.2738C14.5564 10.481 14.6303 10.7253 14.6325 10.9759V13.8873C14.6312 14.0578 14.5966 14.2263 14.5307 14.3825C14.4649 14.5388 14.3691 14.6796 14.2493 14.7966C14.1295 14.9136 13.9881 15.0042 13.8335 15.0631C13.6789 15.122 13.5145 15.1479 13.35 15.1392C2.58937 14.4463 0.418116 5.01343 0.00749107 1.40331C-0.0115704 1.22603 0.00584556 1.04658 0.0585932 0.876764C0.111341 0.70695 0.198225 0.550621 0.313529 0.418062C0.428833 0.285502 0.569945 0.179717 0.72758 0.107666C0.885215 0.0356142 1.0558 -0.0010709 1.22812 2.37971e-05H3.94499C4.18743 0.000766658 4.42412 0.0765743 4.6246 0.217696C4.82508 0.358818 4.9802 0.5588 5.06999 0.791921L5.68312 2.38154C5.77326 2.61041 5.79626 2.86171 5.74924 3.10403C5.70222 3.34636 5.58727 3.56897 5.41874 3.74407L4.15874 5.04837C4.15874 5.04837 4.88437 10.1316 9.75562 10.7605Z" fill="white"/>
</svg>
