<svg xmlns="http://www.w3.org/2000/svg" xmlns:xlink="http://www.w3.org/1999/xlink" version="1.1" baseProfile="full" width="663.493" height="416.83" viewBox="0 0 663.49 416.83" enable-background="new 0 0 663.49 416.83" xml:space="preserve">
	<path fill="#FFFFFF" fill-opacity="1" fill-rule="evenodd" stroke-width="0.2" stroke-linejoin="miter" d="M 525.633,382.098C 526.626,382.985 527.745,383.985 528.864,384.985C 543.825,398.428 560.999,403.54 580.573,397.828C 592.972,394.203 603.171,387.097 608.452,374.886C 615.251,359.156 615.914,343.732 604.483,329.32C 600.984,324.908 603.771,319.496 609.37,319.183C 612.883,318.984 616.508,318.934 619.932,319.571C 631.669,321.752 641.868,317.846 651.417,311.803C 653.955,310.203 655.961,307.247 657.38,304.484C 663.917,291.742 664.742,278.174 662.329,264.281C 658.417,241.708 646.368,224.328 627.969,211.16C 625.332,209.273 624.245,207.273 624.269,204.079C 624.394,190.105 624.432,176.131 624.257,162.157C 624.207,158.495 625.644,156.77 628.957,155.533C 646.355,149.058 655.455,135.428 659.604,118.229C 662.717,105.38 661.379,92.2564 660.88,79.1322C 660.117,58.902 647.949,42.1723 628.419,36.7289C 614.395,32.8168 600.552,33.9291 586.847,38.3851C 584.953,39.0039 582.941,39.9037 581.054,39.7539C 570.873,38.9597 560.562,38.666 550.6,36.6726C 541.313,34.8167 535.013,37.9538 529.833,44.9344C 527.101,48.609 524.727,48.7594 520.74,46.1657C 500.278,32.829 471.181,31.9107 451.382,48.0778C 445.72,52.7028 440.395,57.7527 434.749,62.752C 434.345,62.4204 433.746,62.0896 433.352,61.5956C 419.559,44.1095 401.248,37.4226 379.474,39.0788C 372.325,39.6221 365.207,40.4534 358.82,35.8727C 357.833,35.1604 356.27,35.1668 354.952,35.01C 346.283,34.0225 337.615,33.0293 328.94,32.1289C 318.042,30.9981 308.374,33.4792 301.755,42.8347C 299.324,46.2597 297.168,45.8905 293.756,44.8659C 286.243,42.6094 278.613,39.7284 270.908,39.3098C 253.852,38.3851 239.685,46.078 227.404,57.3022C 224.198,60.2331 222.411,60.9147 218.905,57.5025C 214.862,53.5712 210.124,49.9344 205.024,47.5966C 191.7,41.4786 177.964,36.2477 162.834,40.5724C 157.891,41.9912 153.066,43.8221 147.416,45.7222C 147.416,39.7348 147.504,34.404 147.398,29.0732C 147.104,14.5116 139.53,4.20004 127.167,2.10037C 121.568,1.14999 115.806,0.931122 110.106,0.744293C 98.1699,0.344269 86.2207,0.137604 74.2778,3.05176e-005C 72.934,-0.0185242 71.1531,0.537567 70.3153,1.48148C 66.5344,5.74997 62.5098,9.94363 59.5723,14.7682C 57.5725,18.055 55.5227,19.0674 51.9672,18.9555C 42.3735,18.6674 32.7743,18.574 23.1877,18.599C 21.5188,18.6054 19.407,19.1116 18.2627,20.1925C 9.01978,28.9234 1.97656,38.7915 0.970459,52.1652C 0.102051,63.6582 1.45178,73.939 11.4075,81.557C 12.9133,82.707 13.8195,85.519 13.838,87.5752C 14.0383,104.405 14.0505,121.248 13.8259,138.078C 13.8009,140.296 12.3885,142.665 11.126,144.658C 7.82629,149.896 4.08252,154.864 0.88916,160.164C -0.0234375,161.682 -0.348389,164.201 0.226807,165.87C 3.93286,176.757 7.96387,187.537 12.0135,198.724C 9.57593,202.249 5.53906,206.516 3.35754,211.573C -0.75415,221.103 -0.297852,231.477 1.5957,241.364C 2.67664,247.02 6.45105,252.151 8.9386,257.556C 9.73853,259.307 10.8258,261.169 10.8635,263C 11.3135,284.867 11.5508,306.734 11.9508,328.602C 12.0135,331.833 11.307,334.251 8.65125,336.47C 3.47656,340.782 1.00183,346.669 0.839355,353.368C 0.601807,362.787 0.638916,372.217 0.426514,381.642C 0.351685,384.754 1.45178,386.722 4.44543,387.779C 14.2258,391.228 23.6,395.659 34.2993,396.334C 56.5352,397.747 78.3212,396.403 98.7825,386.754C 105.982,383.354 112.556,378.642 119.787,374.305C 125.455,386.335 136.974,392.053 147.647,398.628C 152.191,401.428 157.209,403.534 162.146,405.634C 186.214,415.864 211.418,418.67 237.172,415.727C 258.383,413.301 278.469,406.79 297.087,396.128C 300.83,393.984 303.536,394.697 305.861,398.565C 310.155,405.715 316.379,410.471 324.929,411.002C 334.634,411.602 344.427,412.489 354.089,411.852C 372.3,410.639 382.293,401.771 384.718,385.51C 385.249,381.935 386.561,380.96 389.743,380.979C 400.185,381.041 410.622,380.867 421.059,381.129C 422.934,381.173 425.346,382.373 426.546,383.835C 441.782,402.422 462.05,406.958 484.642,404.727C 494.067,403.796 503.366,401.578 511.071,395.759C 516.202,391.885 520.539,386.948 525.633,382.098 Z "/>
	<path fill="#3B74B9" fill-opacity="1" fill-rule="evenodd" stroke-width="0.2" stroke-linejoin="miter" d="M 525.633,382.098C 520.539,386.948 516.202,391.885 511.071,395.759C 503.366,401.578 494.067,403.796 484.642,404.727C 462.05,406.958 441.782,402.422 426.546,383.835C 425.346,382.373 422.934,381.173 421.059,381.129C 410.622,380.867 400.185,381.041 389.743,380.979C 386.561,380.96 385.249,381.935 384.718,385.51C 382.293,401.771 372.3,410.639 354.089,411.852C 344.427,412.489 334.634,411.602 324.929,411.002C 316.379,410.471 310.155,405.715 305.861,398.565C 303.536,394.697 300.83,393.984 297.087,396.128C 278.469,406.79 258.383,413.301 237.172,415.727C 211.418,418.67 186.214,415.864 162.146,405.634C 157.209,403.534 152.191,401.428 147.647,398.628C 136.974,392.053 125.455,386.335 119.787,374.305C 112.556,378.642 105.982,383.354 98.7825,386.754C 78.3212,396.403 56.5352,397.747 34.2993,396.334C 23.6,395.659 14.2258,391.228 4.44543,387.779C 1.45178,386.722 0.351685,384.754 0.426514,381.642C 0.638916,372.217 0.601807,362.787 0.839355,353.368C 1.00183,346.669 3.47656,340.782 8.65125,336.47C 11.307,334.251 12.0135,331.833 11.9508,328.602C 11.5508,306.734 11.3135,284.867 10.8635,263C 10.8258,261.169 9.73853,259.307 8.9386,257.556C 6.45105,252.151 2.67664,247.02 1.5957,241.364C -0.297852,231.477 -0.75415,221.103 3.35754,211.573C 5.53906,206.516 9.57593,202.249 12.0135,198.724C 7.96387,187.537 3.93286,176.757 0.226807,165.87C -0.348389,164.201 -0.0234375,161.682 0.88916,160.164C 4.08252,154.864 7.82629,149.896 11.126,144.658C 12.3885,142.665 13.8009,140.296 13.8259,138.078C 14.0505,121.248 14.0383,104.405 13.838,87.5752C 13.8195,85.519 12.9133,82.707 11.4075,81.557C 1.45178,73.939 0.102051,63.6582 0.970459,52.1652C 1.97656,38.7915 9.01978,28.9234 18.2627,20.1925C 19.407,19.1116 21.5188,18.6054 23.1877,18.599C 32.7743,18.574 42.3735,18.6674 51.9672,18.9555C 55.5227,19.0674 57.5725,18.055 59.5723,14.7682C 62.5098,9.94363 66.5344,5.74997 70.3153,1.48148C 71.1531,0.537567 72.934,-0.0185242 74.2778,3.05176e-005C 86.2207,0.137604 98.1699,0.344269 110.106,0.744293C 115.806,0.931122 121.568,1.14999 127.167,2.10037C 139.53,4.20004 147.104,14.5116 147.398,29.0732C 147.504,34.404 147.416,39.7348 147.416,45.7222C 153.066,43.8221 157.891,41.9912 162.834,40.5724C 177.964,36.2477 191.7,41.4786 205.024,47.5966C 210.124,49.9344 214.862,53.5712 218.905,57.5025C 222.411,60.9147 224.198,60.2331 227.404,57.3022C 239.685,46.078 253.852,38.3851 270.908,39.3098C 278.613,39.7284 286.243,42.6094 293.756,44.8659C 297.168,45.8905 299.324,46.2597 301.755,42.8347C 308.374,33.4792 318.042,30.9981 328.94,32.1289C 337.615,33.0293 346.283,34.0225 354.952,35.01C 356.27,35.1668 357.833,35.1604 358.82,35.8727C 365.207,40.4534 372.325,39.6221 379.474,39.0788C 401.248,37.4226 419.559,44.1095 433.352,61.5956C 433.746,62.0896 434.345,62.4204 434.749,62.752C 440.395,57.7527 445.72,52.7028 451.382,48.0778C 471.181,31.9107 500.278,32.829 520.74,46.1657C 524.727,48.7594 527.101,48.609 529.833,44.9344C 535.013,37.9538 541.313,34.8167 550.6,36.6726C 560.562,38.666 570.873,38.9597 581.054,39.7539C 582.941,39.9037 584.953,39.0039 586.847,38.3851C 600.552,33.9291 614.395,32.8168 628.419,36.7289C 647.949,42.1723 660.117,58.902 660.88,79.1322C 661.379,92.2564 662.717,105.38 659.604,118.229C 655.455,135.428 646.355,149.058 628.957,155.533C 625.644,156.77 624.207,158.495 624.257,162.157C 624.432,176.131 624.394,190.105 624.269,204.079C 624.245,207.273 625.332,209.273 627.969,211.16C 646.368,224.328 658.417,241.708 662.329,264.281C 664.742,278.174 663.917,291.742 657.38,304.484C 655.961,307.247 653.955,310.203 651.417,311.803C 641.868,317.846 631.669,321.752 619.932,319.571C 616.508,318.934 612.883,318.984 609.37,319.183C 603.771,319.496 600.984,324.908 604.483,329.32C 615.914,343.732 615.251,359.156 608.452,374.886C 603.171,387.097 592.972,394.203 580.573,397.828C 560.999,403.54 543.825,398.428 528.864,384.985C 527.745,383.985 526.626,382.985 525.633,382.098 Z "/>
	<path fill="#000000" fill-opacity="1" fill-rule="evenodd" stroke-width="0.2" stroke-linejoin="miter" d="M 59.2351,156.095C 59.5852,147.602 60.0472,139.628 60.1848,131.647C 60.2476,128.31 61.2727,126.598 64.8098,126.685C 70.6967,126.829 76.5901,126.866 82.4833,126.866C 85.3958,126.866 86.7832,128.197 86.9144,131.104C 87.2202,137.822 87.5581,144.534 87.9832,151.245C 88.158,153.995 87.6453,155.545 84.3207,155.814C 80.3088,156.139 77.9026,158.851 78.1086,162.97C 78.2841,166.276 79.0083,169.582 79.7214,172.838C 81.1337,179.35 83.0023,180.5 89.6892,179.875C 96.7134,179.218 103.757,178.712 110.8,178.294C 117.669,177.881 118.706,176.913 118.7,170.175C 118.7,168.494 118.768,166.801 118.656,165.126C 118.306,160.064 117.6,155.214 110.707,155.183C 110.707,153.608 110.669,152.445 110.712,151.283C 111.369,135.153 112.294,119.035 112.619,102.899C 112.95,86.5755 112.875,70.2452 112.581,53.9212C 112.494,48.8407 113.643,46.2968 119.175,47.1217C 123.424,47.7534 125.374,45.9097 125.043,41.4345C 124.756,37.5851 124.624,33.6667 124.993,29.8353C 125.455,25.1112 123.181,23.455 118.98,23.3295C 107.219,22.9859 95.4514,22.5174 83.6833,22.4861C 81.9836,22.4796 78.9521,24.461 78.8088,25.7607C 78.2275,31.2105 77.6274,36.9791 78.9712,42.1224C 79.4211,43.8599 85.6205,44.0845 89.1895,45.0157C 89.4954,45.097 89.7705,45.2908 90.0393,45.4284C 90.0393,62.7584 90.0452,80.0634 90.033,97.3684C 90.033,100.431 88.9265,101.762 85.408,101.543C 78.5336,101.124 71.5907,100.95 64.7349,101.456C 60.9476,101.737 59.9724,100.756 60.0287,97.2557C 60.1848,88.338 60.135,79.4196 60.1599,70.4954C 60.1663,68.3951 60.1599,66.289 60.1599,64.3141C 70.0093,62.9523 70.3716,62.5395 70.1342,53.0963C 70.097,51.4216 69.6594,49.759 69.6594,48.0906C 69.6594,43.4599 67.2723,41.51 62.8099,41.4095C 52.5604,41.1663 42.3173,40.7785 32.062,40.5724C 30.8436,40.5475 29.3621,41.0159 28.4124,41.7724C 24.2815,45.0406 21.2692,56.2462 23.3875,61.4522C 25.4814,66.5706 30.5747,64.508 34.4305,65.3706C 34.7178,65.4391 34.9496,65.7521 35.4871,66.1578C 35.4871,96.3681 35.4871,126.779 35.4871,157.426C 34.6743,157.539 33.8616,157.608 33.0745,157.764C 24.9752,159.345 22.6503,163.357 25.2439,171.213C 25.9747,173.431 26.9124,175.612 27.375,177.887C 28.1122,181.481 30.475,183.362 33.7495,183.137C 43.9236,182.431 54.0918,181.387 64.2473,180.312C 67.4535,179.975 68.197,177.7 67.6971,174.769C 67.1597,171.625 66.5223,168.469 66.322,165.294C 65.8285,157.595 65.9099,157.583 59.2351,156.095 Z "/>
	<path fill="#000000" fill-opacity="1" fill-rule="evenodd" stroke-width="0.2" stroke-linejoin="miter" d="M 49.536,375.504C 58.7103,373.961 69.4091,372.899 79.7085,370.267C 103.613,364.168 122.293,342.826 124.593,318.465C 126.412,299.148 125.436,279.968 116.806,261.863C 110.469,248.582 103.613,235.927 90.5077,227.922C 71.1716,216.11 49.7043,215.979 28.1558,216.61C 26.5502,216.66 23.8374,219.347 23.6754,221.009C 23.1001,226.784 23.1129,232.677 23.6,238.464C 23.7502,240.177 25.9434,242.577 27.6752,243.108C 31.3748,244.245 32.887,246.401 33.0559,249.963C 33.1742,252.482 33.4116,255.001 33.3745,257.519C 33.1992,268.95 32.7123,280.38 32.7743,291.811C 32.8748,310.14 33.262,328.47 33.6869,346.8C 33.7747,350.506 32.5619,352.081 28.7747,351.725C 26.1873,351.481 23.2939,351.675 22.9625,355.025C 22.4877,359.862 22.3501,364.743 22.4877,369.598C 22.5127,370.505 24.394,371.943 25.5876,372.136C 32.9746,373.342 40.4178,374.261 49.536,375.504 Z "/>
	<path fill="#000000" fill-opacity="1" fill-rule="evenodd" stroke-width="0.2" stroke-linejoin="miter" d="M 354.532,310.547C 371.538,318.302 389.099,318.621 406.529,309.534C 418.947,303.06 426.224,291.804 424.696,279.68C 421.828,256.944 404.36,240.389 378.987,243.901C 371.244,244.976 363.507,246.083 355.788,247.17C 354.401,239.896 353.008,238.814 345.702,238.52C 342.015,238.371 338.302,238.19 334.671,237.583C 318.835,234.927 316.454,236.927 316.454,253.339C 316.448,262.482 316.829,263.05 326.197,263.05C 330.54,263.056 331.116,264.425 331.031,268.699C 330.703,284.668 330.891,300.654 331.34,316.621C 331.747,330.902 332.766,345.163 333.447,359.437C 333.509,360.724 333.134,362.03 332.978,363.224C 323.032,364.886 322.154,365.943 322.666,376.142C 322.791,378.648 323.535,381.111 323.785,383.61C 324.216,387.897 326.716,389.847 330.778,389.816C 338.996,389.759 347.227,389.66 355.438,389.291C 357.301,389.21 359.601,388.423 360.863,387.135C 366.407,381.498 363.038,369.198 354.532,366.836C 354.532,348.356 354.532,329.583 354.532,310.547 Z "/>
	<path fill="#000000" fill-opacity="1" fill-rule="evenodd" stroke-width="0.2" stroke-linejoin="miter" d="M 354.964,128.01C 356.801,128.722 359.383,129.834 362.038,130.735C 380.412,136.953 397.523,134.078 412.885,122.585C 425.94,112.817 427.559,100.274 422.884,88.0999C 413.847,64.5579 396.423,57.2836 371.925,61.9956C 366.582,63.0271 361.195,63.8393 357.351,64.4895C 354.814,61.2647 353.302,57.3648 351.226,57.0398C 342.127,55.6152 332.878,54.9964 323.66,54.6649C 321.904,54.6028 318.81,56.9214 318.479,58.5711C 317.329,64.2456 316.929,70.1076 316.754,75.9133C 316.717,77.1132 318.692,79.026 320.104,79.4944C 323.553,80.6195 327.228,81.0943 331.031,81.8821C 331.078,82.8881 331.159,83.8628 331.166,84.8381C 331.216,100.799 330.978,116.767 331.365,132.722C 331.715,146.996 332.741,161.264 333.478,175.532C 333.615,178.262 333.353,180.669 329.815,180.931C 323.847,181.369 322.391,185.412 322.685,190.418C 322.91,194.261 323.704,198.061 324.154,201.892C 324.566,205.429 326.578,206.698 329.991,206.654C 338.065,206.554 346.146,206.667 354.229,206.573C 360.401,206.498 362.713,204.285 363.163,198.168C 363.332,195.823 363.713,193.317 363.088,191.143C 362.526,189.174 361.051,186.462 359.426,185.999C 355.289,184.818 355.101,182.269 355.114,178.818C 355.164,161.901 355.033,144.99 354.964,128.01 Z "/>
	<path fill="#000000" fill-opacity="1" fill-rule="evenodd" stroke-width="0.2" stroke-linejoin="miter" d="M 501.291,333.47C 498.004,335.32 494.835,337.613 491.304,338.97C 484.492,341.582 477.768,344.713 469.968,343.007C 457.494,340.282 450.957,326.914 450.082,316.246C 449.72,311.74 451.27,310.409 455.744,310.59C 468.343,311.116 480.955,311.403 493.566,311.415C 501.459,311.428 509.359,310.853 517.252,310.397C 521.246,310.172 524.777,308.653 524.97,304.091C 525.539,290.742 524.233,277.693 518.64,265.256C 508.503,242.701 476.005,230.534 453.938,251.826C 441.427,263.894 434.083,278.38 431.059,295.429C 426.909,318.727 432.108,339.376 447.989,356.925C 455.919,365.693 466.349,369.792 478.224,368.868C 491.36,367.849 501.966,361.381 511.078,352.187C 513.59,349.644 516.527,348.644 520.052,347.656C 523.664,346.644 527.139,342.913 529.164,339.476C 530.064,337.957 527.895,333.582 525.964,331.664C 522.202,327.921 517.665,324.939 513.371,321.746C 510.403,319.54 507.478,318.033 503.978,321.334C 499.941,325.152 498.904,328.389 501.291,333.47 Z "/>
	<path fill="#000000" fill-opacity="1" fill-rule="evenodd" stroke-width="0.2" stroke-linejoin="miter" d="M 456.944,127.753C 459.025,127.753 460.869,127.753 462.706,127.753C 482.905,127.748 503.116,127.76 523.314,127.71C 528.451,127.691 531.139,125.279 531.189,120.66C 531.301,109.555 530.495,98.6495 527.026,87.8753C 517.615,58.5897 479.655,47.3092 457.569,71.5136C 446.632,83.5005 439.782,97.1873 437.083,113.186C 433.12,136.709 438.258,157.739 454.906,174.913C 464.95,185.268 477.611,188.987 492.235,184.75C 502.603,181.744 510.759,175.706 518.452,168.613C 519.765,167.407 521.615,165.532 522.883,165.77C 528.239,166.77 530.976,163.345 533.788,160.076C 537.301,155.989 537.163,153.408 533.07,149.752C 529.201,146.302 525.139,143.046 520.927,140.015C 514.346,135.266 511.965,135.54 507.528,142.328C 506.072,144.546 506.391,147.927 505.703,151.914C 503.453,153.108 500.016,155.208 496.366,156.808C 488.354,160.307 479.93,162.232 471.574,158.664C 461.231,154.246 454.531,139.84 456.944,127.753 Z "/>
	<path fill="#000000" fill-opacity="1" fill-rule="evenodd" stroke-width="0.2" stroke-linejoin="miter" d="M 558.849,161.239C 551.1,162.788 550.4,163.626 550.462,171.513C 550.475,173.7 550.7,175.888 550.725,178.075C 550.787,182.306 553.3,184.237 557.118,184.275C 568.224,184.4 579.342,184.412 590.447,184.149C 592.122,184.112 594.697,182.743 595.209,181.381C 596.471,177.969 597.328,174.206 597.371,170.575C 597.471,163.563 594.653,160.695 587.61,160.764C 582.891,160.813 581.772,158.257 581.61,154.558C 580.854,136.928 580.098,119.292 579.598,101.649C 579.541,99.7682 580.623,97.3434 581.997,96.0245C 589.041,89.2627 596.759,83.4692 606.271,80.432C 611.677,78.7073 613.258,79.801 613.383,86.5506C 609.152,84.257 607.021,86.5563 605.633,90.0812C 604.896,91.9499 604.221,93.8621 603.727,95.8056C 602.884,99.1244 603.777,101.73 607.064,103.324C 614.283,106.837 621.707,110.03 628.594,114.117C 633.894,117.261 635.85,113.661 638.431,110.667C 641.2,107.455 640.825,104.53 638.05,101.28C 636.781,99.7932 636.112,97.2244 636.256,95.2245C 636.587,90.4377 638.018,85.7129 638.2,80.9318C 638.756,66.227 629.3,57.1147 614.445,56.5399C 601.902,56.0523 590.672,59.3148 580.998,65.5019C 578.217,63.758 575.973,61.3645 573.404,60.9333C 566.311,59.7525 559.099,59.1651 551.906,58.765C 545.95,58.4336 541.125,63.127 540.769,69.108C 540.625,71.4579 540.875,73.8321 540.7,76.1763C 540.325,81.2882 543.125,83.1384 547.7,83.2254C 550.65,83.2817 553.599,83.2382 556.212,83.2382C 557.112,109.78 557.974,135.309 558.849,161.239 Z "/>
	<path fill="#000000" fill-opacity="1" fill-rule="evenodd" stroke-width="0.2" stroke-linejoin="miter" d="M 550.087,266.563C 550.45,267.418 550.687,267.712 550.694,268.012C 551.45,292.023 552.156,316.04 552.987,340.045C 553.087,342.982 552,344.463 549.219,344.901C 545.838,345.425 544.344,347.394 544.475,350.806C 544.575,353.475 544.188,356.175 544.469,358.806C 545.219,365.799 546.575,367.149 553.562,367.236C 561.974,367.349 570.398,367.386 578.792,366.924C 589.41,366.337 590.759,364.662 591.084,353.962C 591.322,346.288 588.841,343.451 581.21,343.682C 577.292,343.801 575.698,342.457 575.548,338.664C 574.867,320.708 574.085,302.753 573.423,284.792C 573.361,283.349 573.361,281.38 574.211,280.505C 581.966,272.493 590.459,265.438 601.708,262.957C 606.227,261.956 607.533,263.637 606.671,268.393C 601.04,269.106 599.059,271.237 597.584,278.293C 596.871,281.686 597.296,284.374 601.046,286.117C 608.314,289.498 615.383,293.304 622.545,296.929C 627.007,299.198 629.606,296.754 632.175,293.416C 634.769,290.055 634.644,287.361 631.931,284.024C 630.606,282.386 630.107,279.574 630.238,277.355C 630.569,271.893 631.475,266.462 632.182,261.025C 633.418,251.407 623.588,242.37 615.67,240.402C 600.415,236.608 586.985,240.989 575.229,247.876C 571.361,245.914 568.273,243.439 564.849,242.814C 558.937,241.733 552.793,242.02 546.8,241.302C 541.932,240.721 537.838,242.52 536.688,246.72C 535.245,251.97 535.47,257.719 535.388,263.257C 535.382,263.888 538.001,264.862 539.507,265.137C 543.106,265.8 546.763,266.138 550.087,266.563 Z "/>
	<path fill="#000000" fill-opacity="1" fill-rule="evenodd" stroke-width="0.2" stroke-linejoin="miter" d="M 178.251,158.295C 199.013,158.295 211.899,149.952 217.674,132.035C 224.286,111.486 220.842,92.6622 207.093,75.7821C 199.587,66.5706 176.414,57.521 164.096,62.521C 140.042,72.295 128.08,94.6057 130.73,117.261C 133.63,142.071 153.716,160.433 178.251,158.295 Z "/>
	<path fill="#000000" fill-opacity="1" fill-rule="evenodd" stroke-width="0.2" stroke-linejoin="miter" d="M 179.057,341.207C 192.363,341.95 203.512,337.388 211.705,326.295C 226.335,306.472 222.917,272.375 204.387,256.063C 193.713,246.664 181.126,241.152 166.927,244.695C 143.504,250.532 127.518,275.237 130.468,299.054C 133.492,323.408 151.529,342.576 179.057,341.207 Z "/>
	<path fill="#000000" fill-opacity="1" fill-rule="evenodd" stroke-width="0.2" stroke-linejoin="miter" d="M 273.557,158.302C 291.406,158.295 302.655,152.721 309.38,138.984C 312.398,132.803 314.217,125.716 315.098,118.854C 317.629,99.2057 311.011,82.7006 295.58,70.2388C 287.081,63.3772 276.419,59.5087 265.982,61.0586C 243.01,64.4831 225.892,86.0751 225.273,109.605C 224.561,136.434 244.809,160.808 273.557,158.302 Z "/>
	<path fill="#000000" fill-opacity="1" fill-rule="evenodd" stroke-width="0.2" stroke-linejoin="miter" d="M 273.332,341.22C 290.118,341.238 300.799,336.032 308.086,324.077C 320.366,303.935 317.604,274.856 300.755,257.269C 291.869,247.995 269.801,239.933 255.908,246.339C 234.273,256.32 221.448,279.98 226.398,304.635C 230.148,323.302 246.128,342.532 273.332,341.22 Z "/>
	<path fill="#000000" fill-opacity="1" fill-rule="evenodd" stroke-width="0.2" stroke-linejoin="miter" d="M 215.874,216.978C 234.41,216.928 249.246,214.41 263.627,209.442C 277.344,204.698 290.281,198.367 301.736,189.312C 306.055,185.893 305.943,182.818 301.455,179.769C 300.218,178.931 298.843,178.194 297.424,177.756C 288.243,174.956 280.019,176.732 272.307,182.493C 258.821,192.561 243.572,198.411 226.798,199.829C 207.787,201.436 190.575,195.942 175.164,185.062C 166.027,178.606 156.76,179.906 147.41,183.468C 141.241,185.818 141.017,189.262 146.266,193.217C 167.846,209.467 192.426,216.541 215.874,216.978 Z "/>
	<path fill="#000000" fill-opacity="1" fill-rule="evenodd" stroke-width="0.2" stroke-linejoin="miter" d="M 220.361,394.834C 247.009,395.247 272.969,386.873 296.562,370.917C 298.993,369.274 302.668,365.455 302.13,364.243C 300.893,361.443 297.48,359.562 294.843,357.45C 294.106,356.862 292.993,356.706 292.018,356.468C 283.688,354.431 276.607,357.206 269.795,361.849C 238.622,383.066 203.206,383.997 174.502,363.593C 165.528,357.212 156.753,356.25 147.016,359.618C 144.579,360.468 141.629,362.362 140.836,364.493C 140.31,365.899 142.786,369.161 144.666,370.611C 166.365,387.316 191.057,395.065 220.361,394.834 Z "/>
	<path fill="#FCE108" fill-opacity="1" fill-rule="evenodd" stroke-width="0.2" stroke-linejoin="miter" d="M 59.2351,156.095C 65.9099,157.583 65.8285,157.595 66.322,165.294C 66.5223,168.469 67.1597,171.625 67.6971,174.769C 68.197,177.7 67.4535,179.975 64.2473,180.312C 54.0918,181.387 43.9236,182.431 33.7495,183.137C 30.475,183.362 28.1122,181.481 27.375,177.887C 26.9124,175.612 25.9747,173.431 25.2439,171.213C 22.6503,163.357 24.9752,159.345 33.0745,157.764C 33.8616,157.608 34.6743,157.539 35.4871,157.426C 35.4871,126.779 35.4871,96.3681 35.4871,66.1578C 34.9496,65.7521 34.7178,65.4391 34.4305,65.3706C 30.5747,64.508 25.4814,66.5706 23.3875,61.4522C 21.2692,56.2462 24.2815,45.0406 28.4124,41.7724C 29.3621,41.0159 30.8436,40.5475 32.062,40.5724C 42.3173,40.7785 52.5604,41.1663 62.8099,41.4095C 67.2723,41.51 69.6594,43.4599 69.6594,48.0906C 69.6594,49.759 70.097,51.4216 70.1342,53.0963C 70.3716,62.5395 70.0093,62.9523 60.1599,64.3141C 60.1599,66.289 60.1663,68.3951 60.1599,70.4954C 60.135,79.4196 60.1848,88.338 60.0287,97.2557C 59.9724,100.756 60.9476,101.737 64.7349,101.456C 71.5907,100.95 78.5336,101.124 85.408,101.543C 88.9265,101.762 90.033,100.431 90.033,97.3684C 90.0452,80.0634 90.0393,62.7584 90.0393,45.4284C 89.7705,45.2908 89.4954,45.097 89.1895,45.0157C 85.6205,44.0845 79.4211,43.8599 78.9712,42.1224C 77.6274,36.9791 78.2275,31.2105 78.8088,25.7607C 78.9521,24.461 81.9836,22.4796 83.6833,22.4861C 95.4514,22.5174 107.219,22.9859 118.98,23.3295C 123.181,23.455 125.455,25.1112 124.993,29.8353C 124.624,33.6667 124.756,37.5851 125.043,41.4345C 125.374,45.9097 123.424,47.7534 119.175,47.1217C 113.643,46.2968 112.494,48.8407 112.581,53.9212C 112.875,70.2452 112.95,86.5755 112.619,102.899C 112.294,119.035 111.369,135.153 110.712,151.283C 110.669,152.445 110.707,153.608 110.707,155.183C 117.6,155.214 118.306,160.064 118.656,165.126C 118.768,166.801 118.7,168.494 118.7,170.175C 118.706,176.913 117.669,177.881 110.8,178.294C 103.757,178.712 96.7134,179.218 89.6892,179.875C 83.0023,180.5 81.1337,179.35 79.7214,172.838C 79.0083,169.582 78.2841,166.276 78.1086,162.97C 77.9026,158.851 80.3088,156.139 84.3207,155.814C 87.6453,155.545 88.158,153.995 87.9832,151.245C 87.5581,144.534 87.2202,137.822 86.9144,131.104C 86.7832,128.197 85.3958,126.866 82.4833,126.866C 76.5901,126.866 70.6967,126.829 64.8098,126.685C 61.2727,126.598 60.2476,128.31 60.1848,131.647C 60.0472,139.628 59.5852,147.602 59.2351,156.095 Z "/>
	<path fill="#FCE108" fill-opacity="1" fill-rule="evenodd" stroke-width="0.2" stroke-linejoin="miter" d="M 49.536,375.504C 40.4178,374.261 32.9746,373.342 25.5876,372.136C 24.394,371.943 22.5127,370.505 22.4877,369.598C 22.3501,364.743 22.4877,359.862 22.9625,355.025C 23.2939,351.675 26.1873,351.481 28.7747,351.725C 32.5619,352.081 33.7747,350.506 33.6869,346.8C 33.262,328.47 32.8748,310.14 32.7743,291.811C 32.7123,280.38 33.1992,268.95 33.3745,257.519C 33.4116,255.001 33.1742,252.482 33.0559,249.963C 32.887,246.401 31.3748,244.245 27.6752,243.108C 25.9434,242.577 23.7502,240.177 23.6,238.464C 23.1129,232.677 23.1001,226.784 23.6754,221.009C 23.8374,219.347 26.5502,216.66 28.1558,216.61C 49.7043,215.979 71.1716,216.11 90.5077,227.922C 103.613,235.927 110.469,248.582 116.806,261.863C 125.436,279.968 126.412,299.148 124.593,318.465C 122.293,342.826 103.613,364.168 79.7085,370.267C 69.4091,372.899 58.7103,373.961 49.536,375.504 Z "/>
	<path fill="#FFFFFF" fill-opacity="1" fill-rule="evenodd" stroke-width="0.2" stroke-linejoin="miter" d="M 56.1914,240.933C 56.1914,243.939 56.1665,246.108 56.198,248.276C 56.5537,279.243 56.9231,310.209 57.2852,341.176C 57.3101,343.195 56.8979,345.344 57.4663,347.194C 57.8599,348.475 59.6351,350.294 60.7102,350.244C 64.1844,350.075 67.7471,349.538 71.0468,348.456C 91.0575,341.894 98.7888,326.308 100.044,306.897C 101.27,288.098 95.1449,271.225 83.5457,256.507C 76.8153,247.964 68.0095,242.508 56.1914,240.933 Z "/>
	<path fill="#FCE108" fill-opacity="1" fill-rule="evenodd" stroke-width="0.2" stroke-linejoin="miter" d="M 354.532,310.547C 354.532,329.583 354.532,348.356 354.532,366.836C 363.038,369.198 366.407,381.498 360.863,387.135C 359.601,388.423 357.301,389.21 355.438,389.291C 347.227,389.66 338.996,389.759 330.778,389.816C 326.716,389.847 324.216,387.897 323.785,383.61C 323.535,381.111 322.791,378.648 322.666,376.142C 322.154,365.943 323.032,364.886 332.978,363.224C 333.134,362.03 333.509,360.724 333.447,359.437C 332.766,345.163 331.747,330.902 331.34,316.621C 330.891,300.654 330.703,284.668 331.031,268.699C 331.116,264.425 330.54,263.056 326.197,263.05C 316.829,263.05 316.448,262.482 316.454,253.339C 316.454,236.927 318.835,234.927 334.671,237.583C 338.302,238.19 342.015,238.371 345.702,238.52C 353.008,238.814 354.401,239.896 355.788,247.17C 363.507,246.083 371.244,244.976 378.987,243.901C 404.36,240.389 421.828,256.944 424.696,279.68C 426.224,291.804 418.947,303.06 406.529,309.534C 389.099,318.621 371.538,318.302 354.532,310.547 Z "/>
	<path fill="#FFFFFF" fill-opacity="1" fill-rule="evenodd" stroke-width="0.2" stroke-linejoin="miter" d="M 384.43,264.794C 384.299,264.563 384.174,264.331 384.043,264.094C 375.931,266.444 367.775,268.656 359.738,271.231C 357.783,271.862 354.914,273.55 354.745,275.005C 354.452,277.661 355.095,281.161 356.751,283.13C 359.251,286.117 362.763,288.436 366.188,290.448C 375.525,295.923 390.174,295.067 398.111,289.048C 402.585,285.655 404.36,281.199 403.254,275.855C 402.261,271.056 398.873,268.043 394.248,266.725C 391.049,265.813 387.711,265.418 384.43,264.794 Z "/>
	<path fill="#FCE108" fill-opacity="1" fill-rule="evenodd" stroke-width="0.2" stroke-linejoin="miter" d="M 354.964,128.01C 355.033,144.99 355.164,161.901 355.114,178.818C 355.101,182.269 355.289,184.818 359.426,185.999C 361.051,186.462 362.526,189.174 363.088,191.143C 363.713,193.317 363.332,195.823 363.163,198.168C 362.713,204.285 360.401,206.498 354.229,206.573C 346.146,206.667 338.065,206.554 329.991,206.654C 326.578,206.698 324.566,205.429 324.154,201.892C 323.704,198.061 322.91,194.261 322.685,190.418C 322.391,185.412 323.847,181.369 329.815,180.931C 333.353,180.669 333.615,178.262 333.478,175.532C 332.741,161.264 331.715,146.996 331.365,132.722C 330.978,116.767 331.216,100.799 331.166,84.8381C 331.159,83.8628 331.078,82.8881 331.031,81.8821C 327.228,81.0943 323.553,80.6195 320.104,79.4944C 318.692,79.026 316.717,77.1132 316.754,75.9133C 316.929,70.1076 317.329,64.2456 318.479,58.5711C 318.81,56.9214 321.904,54.6028 323.66,54.6649C 332.878,54.9964 342.127,55.6152 351.226,57.0398C 353.302,57.3648 354.814,61.2647 357.351,64.4895C 361.195,63.8393 366.582,63.0271 371.925,61.9956C 396.423,57.2836 413.847,64.5579 422.884,88.0999C 427.559,100.274 425.94,112.817 412.885,122.585C 397.523,134.078 380.412,136.953 362.038,130.735C 359.383,129.834 356.801,128.722 354.964,128.01 Z "/>
	<path fill="#FFFFFF" fill-opacity="1" fill-rule="evenodd" stroke-width="0.2" stroke-linejoin="miter" d="M 384.499,82.9253C 375.287,82.3256 367.063,85.8818 358.732,88.8563C 354.239,90.4562 352.401,96.5748 355.72,99.8495C 366.65,110.649 378.287,114.705 393.686,109.061C 399.179,107.049 403.466,103.212 403.435,96.4058C 403.41,90.3999 401.004,86.525 394.368,84.1252C 391.33,83.0315 387.805,83.2881 384.499,82.9253 Z "/>
	<path fill="#FCE108" fill-opacity="1" fill-rule="evenodd" stroke-width="0.2" stroke-linejoin="miter" d="M 501.291,333.47C 498.904,328.389 499.941,325.152 503.978,321.334C 507.478,318.033 510.403,319.54 513.371,321.746C 517.665,324.939 522.202,327.921 525.964,331.664C 527.895,333.582 530.064,337.957 529.164,339.476C 527.139,342.913 523.664,346.644 520.052,347.656C 516.527,348.644 513.59,349.644 511.078,352.187C 501.966,361.381 491.36,367.849 478.224,368.868C 466.349,369.792 455.919,365.693 447.989,356.925C 432.108,339.376 426.909,318.727 431.059,295.429C 434.083,278.38 441.427,263.894 453.938,251.826C 476.005,230.534 508.503,242.701 518.64,265.256C 524.233,277.693 525.539,290.742 524.97,304.091C 524.777,308.653 521.246,310.172 517.252,310.397C 509.359,310.853 501.459,311.428 493.566,311.415C 480.955,311.403 468.343,311.116 455.744,310.59C 451.27,310.409 449.72,311.74 450.082,316.246C 450.957,326.914 457.494,340.282 469.968,343.007C 477.768,344.713 484.492,341.582 491.304,338.97C 494.835,337.613 498.004,335.32 501.291,333.47 Z "/>
	<path fill="#FFFFFF" fill-opacity="1" fill-rule="evenodd" stroke-width="0.2" stroke-linejoin="miter" d="M 500.922,289.267C 499.978,283.898 499.328,279.63 498.478,275.405C 497.003,268.037 490.16,262.494 482.811,263.438C 478.761,263.956 474.58,265.35 471.018,267.343C 462.644,272.037 456.631,278.911 453.607,289.267C 469.43,289.267 484.554,289.267 500.922,289.267 Z "/>
	<path fill="#FCE108" fill-opacity="1" fill-rule="evenodd" stroke-width="0.2" stroke-linejoin="miter" d="M 456.944,127.753C 454.531,139.84 461.231,154.246 471.574,158.664C 479.93,162.232 488.354,160.307 496.366,156.808C 500.016,155.208 503.453,153.108 505.703,151.914C 506.391,147.927 506.072,144.546 507.528,142.328C 511.965,135.54 514.346,135.266 520.927,140.015C 525.139,143.046 529.201,146.302 533.07,149.752C 537.163,153.408 537.301,155.989 533.788,160.076C 530.976,163.345 528.239,166.77 522.883,165.77C 521.615,165.532 519.765,167.407 518.452,168.613C 510.759,175.706 502.603,181.744 492.235,184.75C 477.611,188.987 464.95,185.268 454.906,174.913C 438.258,157.739 433.12,136.709 437.083,113.186C 439.782,97.1873 446.632,83.5005 457.569,71.5136C 479.655,47.3092 517.615,58.5897 527.026,87.8753C 530.495,98.6495 531.301,109.555 531.189,120.66C 531.139,125.279 528.451,127.691 523.314,127.71C 503.116,127.76 482.905,127.748 462.706,127.753C 460.869,127.753 459.025,127.753 456.944,127.753 Z "/>
	<path fill="#FFFFFF" fill-opacity="1" fill-rule="evenodd" stroke-width="0.2" stroke-linejoin="miter" d="M 506.278,106.93C 506.278,104.487 506.484,102.636 506.228,100.849C 505.809,97.8746 505.197,94.9122 504.478,91.9934C 502.847,85.3756 497.491,81.2069 490.648,81.2133C 476.993,81.2319 468.605,89.2877 462.194,100.155C 461.019,102.137 460.469,104.487 459.531,106.93C 475.461,106.93 490.517,106.93 506.278,106.93 Z "/>
	<path fill="#FCE108" fill-opacity="1" fill-rule="evenodd" stroke-width="0.2" stroke-linejoin="miter" d="M 558.849,161.239C 557.974,135.309 557.112,109.78 556.212,83.2382C 553.599,83.2382 550.65,83.2817 547.7,83.2254C 543.125,83.1384 540.325,81.2882 540.7,76.1763C 540.875,73.8321 540.625,71.4579 540.769,69.108C 541.125,63.127 545.95,58.4336 551.906,58.765C 559.099,59.1651 566.311,59.7525 573.404,60.9333C 575.973,61.3645 578.217,63.758 580.998,65.5019C 590.672,59.3148 601.902,56.0523 614.445,56.5399C 629.3,57.1147 638.756,66.227 638.2,80.9318C 638.018,85.7129 636.587,90.4377 636.256,95.2245C 636.112,97.2244 636.781,99.7932 638.05,101.28C 640.825,104.53 641.2,107.455 638.431,110.667C 635.85,113.661 633.894,117.261 628.594,114.117C 621.707,110.03 614.283,106.837 607.064,103.324C 603.777,101.73 602.884,99.1244 603.727,95.8056C 604.221,93.8621 604.896,91.9499 605.633,90.0812C 607.021,86.5563 609.152,84.257 613.383,86.5506C 613.258,79.801 611.677,78.7073 606.271,80.432C 596.759,83.4692 589.041,89.2627 581.997,96.0245C 580.623,97.3434 579.541,99.7682 579.598,101.649C 580.098,119.292 580.854,136.928 581.61,154.558C 581.772,158.257 582.891,160.813 587.61,160.764C 594.653,160.695 597.471,163.563 597.371,170.575C 597.328,174.206 596.471,177.969 595.209,181.381C 594.697,182.743 592.122,184.112 590.447,184.149C 579.342,184.412 568.224,184.4 557.118,184.275C 553.3,184.237 550.787,182.306 550.725,178.075C 550.7,175.888 550.475,173.7 550.462,171.513C 550.4,163.626 551.1,162.788 558.849,161.239 Z "/>
	<path fill="#FCE108" fill-opacity="1" fill-rule="evenodd" stroke-width="0.2" stroke-linejoin="miter" d="M 550.087,266.563C 546.763,266.138 543.106,265.8 539.507,265.137C 538.001,264.862 535.382,263.888 535.388,263.257C 535.47,257.719 535.245,251.97 536.688,246.72C 537.838,242.52 541.932,240.721 546.8,241.302C 552.793,242.02 558.937,241.733 564.849,242.814C 568.273,243.439 571.361,245.914 575.229,247.876C 586.985,240.989 600.415,236.608 615.67,240.402C 623.588,242.37 633.418,251.407 632.182,261.025C 631.475,266.462 630.569,271.893 630.238,277.355C 630.107,279.574 630.606,282.386 631.931,284.024C 634.644,287.361 634.769,290.055 632.175,293.416C 629.606,296.754 627.007,299.198 622.545,296.929C 615.383,293.304 608.314,289.498 601.046,286.117C 597.296,284.374 596.871,281.686 597.584,278.293C 599.059,271.237 601.04,269.106 606.671,268.393C 607.533,263.637 606.227,261.956 601.708,262.957C 590.459,265.438 581.966,272.493 574.211,280.505C 573.361,281.38 573.361,283.349 573.423,284.792C 574.085,302.753 574.867,320.708 575.548,338.664C 575.698,342.457 577.292,343.801 581.21,343.682C 588.841,343.451 591.322,346.288 591.084,353.962C 590.759,364.662 589.41,366.337 578.792,366.924C 570.398,367.386 561.974,367.349 553.562,367.236C 546.575,367.149 545.219,365.799 544.469,358.806C 544.188,356.175 544.575,353.475 544.475,350.806C 544.344,347.394 545.838,345.425 549.219,344.901C 552,344.463 553.087,342.982 552.987,340.045C 552.156,316.04 551.45,292.023 550.694,268.012C 550.687,267.712 550.45,267.418 550.087,266.563 Z "/>
	<path fill="#FFFFFF" fill-opacity="1" fill-rule="evenodd" stroke-width="0.2" stroke-linejoin="miter" d="M 178.251,158.295C 153.716,160.433 133.63,142.071 130.73,117.261C 128.08,94.6057 140.042,72.295 164.096,62.521C 176.414,57.521 199.587,66.5706 207.093,75.7821C 220.842,92.6622 224.286,111.486 217.674,132.035C 211.899,149.952 199.013,158.295 178.251,158.295 Z "/>
	<path fill="#FFFFFF" fill-opacity="1" fill-rule="evenodd" stroke-width="0.2" stroke-linejoin="miter" d="M 178.564,133.628C 181.164,133.122 183.92,133.003 186.332,132.035C 199.475,126.766 202.488,107.611 191.094,97.0055C 176.483,83.4129 164.74,84.4631 157.947,104.087C 152.841,118.811 161.115,133.828 178.564,133.628 Z "/>
	<path fill="#FFFFFF" fill-opacity="1" fill-rule="evenodd" stroke-width="0.2" stroke-linejoin="miter" d="M 179.057,341.207C 151.529,342.576 133.492,323.408 130.468,299.054C 127.518,275.237 143.504,250.532 166.927,244.695C 181.126,241.152 193.713,246.664 204.387,256.063C 222.917,272.375 226.335,306.472 211.705,326.295C 203.512,337.388 192.363,341.95 179.057,341.207 Z "/>
	<path fill="#FFFFFF" fill-opacity="1" fill-rule="evenodd" stroke-width="0.2" stroke-linejoin="miter" d="M 178.445,316.04C 188.082,316.084 194.95,311.021 197.056,302.291C 199.044,294.035 197.212,286.754 191.738,280.217C 186.526,273.993 179.426,270.294 171.958,271.037C 164.172,271.818 160.471,279.093 158.015,286.161C 152.385,302.316 161.765,315.972 178.445,316.04 Z "/>
	<path fill="#FFFFFF" fill-opacity="1" fill-rule="evenodd" stroke-width="0.2" stroke-linejoin="miter" d="M 273.557,158.302C 244.809,160.808 224.561,136.434 225.273,109.605C 225.892,86.0751 243.01,64.4831 265.982,61.0586C 276.419,59.5087 287.081,63.3772 295.58,70.2388C 311.011,82.7006 317.629,99.2057 315.098,118.854C 314.217,125.716 312.398,132.803 309.38,138.984C 302.655,152.721 291.406,158.295 273.557,158.302 Z "/>
	<path fill="#FFFFFF" fill-opacity="1" fill-rule="evenodd" stroke-width="0.2" stroke-linejoin="miter" d="M 273.095,133.21C 283.581,133.241 289.969,128.472 292.143,118.998C 294.493,108.711 290.031,97.2244 280.557,92.3563C 268.245,86.038 264.933,85.6566 257.146,95.3122C 255.296,97.5994 254.059,100.512 253.059,103.324C 248.359,116.573 253.846,133.441 273.095,133.21 Z "/>
	<path fill="#FFFFFF" fill-opacity="1" fill-rule="evenodd" stroke-width="0.2" stroke-linejoin="miter" d="M 273.332,341.22C 246.128,342.532 230.148,323.302 226.398,304.635C 221.448,279.98 234.273,256.32 255.908,246.339C 269.801,239.933 291.869,247.995 300.755,257.269C 317.604,274.856 320.366,303.935 308.086,324.077C 300.799,336.032 290.118,341.238 273.332,341.22 Z "/>
	<path fill="#FFFFFF" fill-opacity="1" fill-rule="evenodd" stroke-width="0.2" stroke-linejoin="miter" d="M 273.107,316.034C 287.418,316.059 295.469,305.234 291.862,290.123C 288.993,278.137 279.844,272.656 268.589,270.718C 262.883,269.737 255.908,277.099 252.821,286.386C 247.484,302.441 256.765,316.009 273.107,316.034 Z "/>
	<path fill="#FFFFFF" fill-opacity="1" fill-rule="evenodd" stroke-width="0.2" stroke-linejoin="miter" d="M 215.874,216.978C 192.426,216.541 167.846,209.467 146.266,193.217C 141.017,189.262 141.241,185.818 147.41,183.468C 156.76,179.906 166.027,178.606 175.164,185.062C 190.575,195.942 207.787,201.436 226.798,199.829C 243.572,198.411 258.821,192.561 272.307,182.493C 280.019,176.732 288.243,174.956 297.424,177.756C 298.843,178.194 300.218,178.931 301.455,179.769C 305.943,182.818 306.055,185.893 301.736,189.312C 290.281,198.367 277.344,204.698 263.627,209.442C 249.246,214.41 234.41,216.928 215.874,216.978 Z "/>
	<path fill="#FFFFFF" fill-opacity="1" fill-rule="evenodd" stroke-width="0.2" stroke-linejoin="miter" d="M 220.361,394.834C 191.057,395.065 166.365,387.316 144.666,370.611C 142.786,369.161 140.31,365.899 140.836,364.493C 141.629,362.362 144.579,360.468 147.016,359.618C 156.753,356.25 165.528,357.212 174.502,363.593C 203.206,383.997 238.622,383.066 269.795,361.849C 276.607,357.206 283.688,354.431 292.018,356.468C 292.993,356.706 294.106,356.862 294.843,357.45C 297.48,359.562 300.893,361.443 302.13,364.243C 302.668,365.455 298.993,369.274 296.562,370.917C 272.969,386.873 247.009,395.247 220.361,394.834 Z "/>
	<path fill="#3B74B9" fill-opacity="1" fill-rule="evenodd" stroke-width="0.2" stroke-linejoin="miter" d="M 56.1914,240.933C 68.0095,242.508 76.8153,247.964 83.5457,256.507C 95.1449,271.225 101.27,288.098 100.044,306.897C 98.7888,326.308 91.0575,341.894 71.0468,348.456C 67.7471,349.538 64.1844,350.075 60.7102,350.244C 59.6351,350.294 57.8599,348.475 57.4663,347.194C 56.8979,345.344 57.3101,343.195 57.2852,341.176C 56.9231,310.209 56.5537,279.243 56.198,248.276C 56.1665,246.108 56.1914,243.939 56.1914,240.933 Z "/>
	<path fill="#3B74B9" fill-opacity="1" fill-rule="evenodd" stroke-width="0.2" stroke-linejoin="miter" d="M 384.43,264.794C 387.711,265.418 391.049,265.813 394.248,266.725C 398.873,268.043 402.261,271.056 403.254,275.855C 404.36,281.199 402.585,285.655 398.111,289.048C 390.174,295.067 375.525,295.923 366.188,290.448C 362.763,288.436 359.251,286.117 356.751,283.13C 355.095,281.161 354.452,277.661 354.745,275.005C 354.914,273.55 357.783,271.862 359.738,271.231C 367.775,268.656 375.931,266.444 384.043,264.094C 384.174,264.331 384.299,264.563 384.43,264.794 Z "/>
	<path fill="#3B74B9" fill-opacity="1" fill-rule="evenodd" stroke-width="0.2" stroke-linejoin="miter" d="M 384.499,82.9253C 387.805,83.2881 391.33,83.0315 394.368,84.1252C 401.004,86.525 403.41,90.3999 403.435,96.4058C 403.466,103.212 399.179,107.049 393.686,109.061C 378.287,114.705 366.65,110.649 355.72,99.8495C 352.401,96.5748 354.239,90.4562 358.732,88.8563C 367.063,85.8818 375.287,82.3256 384.499,82.9253 Z "/>
	<path fill="#3B74B9" fill-opacity="1" fill-rule="evenodd" stroke-width="0.2" stroke-linejoin="miter" d="M 500.922,289.267C 484.554,289.267 469.43,289.267 453.607,289.267C 456.631,278.911 462.644,272.037 471.018,267.343C 474.58,265.35 478.761,263.956 482.811,263.438C 490.16,262.494 497.003,268.037 498.478,275.405C 499.328,279.63 499.978,283.898 500.922,289.267 Z "/>
	<path fill="#3B74B9" fill-opacity="1" fill-rule="evenodd" stroke-width="0.2" stroke-linejoin="miter" d="M 506.278,106.93C 490.517,106.93 475.461,106.93 459.531,106.93C 460.469,104.487 461.019,102.137 462.194,100.155C 468.605,89.2877 476.993,81.2319 490.648,81.2133C 497.491,81.2069 502.847,85.3756 504.478,91.9934C 505.197,94.9122 505.809,97.8746 506.228,100.849C 506.484,102.636 506.278,104.487 506.278,106.93 Z "/>
	<path fill="#3B74B9" fill-opacity="1" fill-rule="evenodd" stroke-width="0.2" stroke-linejoin="miter" d="M 178.564,133.628C 161.115,133.828 152.841,118.811 157.947,104.087C 164.74,84.4631 176.483,83.4129 191.094,97.0055C 202.488,107.611 199.475,126.766 186.332,132.035C 183.92,133.003 181.164,133.122 178.564,133.628 Z "/>
	<path fill="#3B74B9" fill-opacity="1" fill-rule="evenodd" stroke-width="0.2" stroke-linejoin="miter" d="M 178.445,316.04C 161.765,315.972 152.385,302.316 158.015,286.161C 160.471,279.093 164.172,271.818 171.958,271.037C 179.426,270.294 186.526,273.993 191.738,280.217C 197.212,286.754 199.044,294.035 197.056,302.291C 194.95,311.021 188.082,316.084 178.445,316.04 Z "/>
	<path fill="#3B74B9" fill-opacity="1" fill-rule="evenodd" stroke-width="0.2" stroke-linejoin="miter" d="M 273.095,133.21C 253.846,133.441 248.359,116.573 253.059,103.324C 254.059,100.512 255.296,97.5994 257.146,95.3122C 264.933,85.6566 268.245,86.038 280.557,92.3563C 290.031,97.2244 294.493,108.711 292.143,118.998C 289.969,128.472 283.581,133.241 273.095,133.21 Z "/>
	<path fill="#3B74B9" fill-opacity="1" fill-rule="evenodd" stroke-width="0.2" stroke-linejoin="miter" d="M 273.107,316.034C 256.765,316.009 247.484,302.441 252.821,286.386C 255.908,277.099 262.883,269.737 268.589,270.718C 279.844,272.656 288.993,278.137 291.862,290.123C 295.469,305.234 287.418,316.059 273.107,316.034 Z "/>
</svg>