<svg width="41" height="41" viewBox="0 0 41 41" fill="none" xmlns="http://www.w3.org/2000/svg">
<rect width="40.7273" height="40.7273" rx="20.3636" fill="black"/>
<path d="M20.3635 10.3636C21.6896 10.3636 22.9614 10.8904 23.8991 11.8281C24.8367 12.7658 25.3635 14.0376 25.3635 15.3636C25.3635 16.6897 24.8367 17.9615 23.8991 18.8992C22.9614 19.8369 21.6896 20.3636 20.3635 20.3636C19.0374 20.3636 17.7657 19.8369 16.828 18.8992C15.8903 17.9615 15.3635 16.6897 15.3635 15.3636C15.3635 14.0376 15.8903 12.7658 16.828 11.8281C17.7657 10.8904 19.0374 10.3636 20.3635 10.3636ZM20.3635 22.8636C25.8885 22.8636 30.3635 25.1011 30.3635 27.8636V30.3636H10.3635V27.8636C10.3635 25.1011 14.8385 22.8636 20.3635 22.8636Z" fill="white"/>
</svg>
