<svg width="23" height="25" viewBox="0 0 23 25" fill="none" xmlns="http://www.w3.org/2000/svg">
<g clip-path="url(#clip0_188_2890)">
<path d="M14.1111 22.3039C13.6202 22.3039 13.2222 21.865 13.2222 21.3235C13.2222 20.7821 13.6202 20.3431 14.1111 20.3431C14.602 20.3431 15 20.7821 15 21.3235C15 21.865 14.602 22.3039 14.1111 22.3039Z" stroke="#17183B" stroke-width="2" stroke-linecap="round" stroke-linejoin="round"/>
<path d="M4.33328 22.3039C3.84236 22.3039 3.44439 21.865 3.44439 21.3235C3.44439 20.7821 3.84236 20.3431 4.33328 20.3431C4.8242 20.3431 5.22217 20.7821 5.22217 21.3235C5.22217 21.865 4.8242 22.3039 4.33328 22.3039Z" stroke="#17183B" stroke-width="2" stroke-linecap="round" stroke-linejoin="round"/>
<path d="M21.2222 1.71569H17.6666L15.2844 14.8431C15.2031 15.2945 14.9805 15.7 14.6555 15.9885C14.3304 16.2771 13.9238 16.4304 13.5066 16.4216H4.86661C4.44945 16.4304 4.04277 16.2771 3.71776 15.9885C3.39275 15.7 3.17012 15.2945 3.08883 14.8431L1.66661 6.61765H16.7777" stroke="#17183B" stroke-width="2" stroke-linecap="round" stroke-linejoin="round"/>
</g>
<defs>
<clipPath id="clip0_188_2890">
<rect width="21.3333" height="23.5294" fill="white" transform="matrix(-1 0 0 1 22.1111 0.735294)"/>
</clipPath>
</defs>
</svg>
